<?xml version="1.0" encoding="UTF-8" standalone="no"?>
<!-- Generator: Adobe Illustrator 24.0.0, SVG Export Plug-In . SVG Version: 6.00 Build 0)  -->

<svg
   version="1.1"
   id="Layer_1"
   x="0px"
   y="0px"
   viewBox="0 0 39.999999 39.999998"
   xml:space="preserve"
   sodipodi:docname="2024-02-23_icon5.svg"
   inkscape:version="1.3.2 (091e20ef0f, 2023-11-25, custom)"
   width="40"
   height="40"
   xmlns:inkscape="http://www.inkscape.org/namespaces/inkscape"
   xmlns:sodipodi="http://sodipodi.sourceforge.net/DTD/sodipodi-0.dtd"
   xmlns:xlink="http://www.w3.org/1999/xlink"
   xmlns="http://www.w3.org/2000/svg"
   xmlns:svg="http://www.w3.org/2000/svg"><defs
   id="defs6"><linearGradient
     inkscape:collect="always"
     xlink:href="#SVGID_1_"
     id="linearGradient8"
     x1="256.24356"
     y1="136.78117"
     x2="230.69931"
     y2="190.95978"
     gradientUnits="userSpaceOnUse"
     gradientTransform="matrix(0.35388249,0,0,0.36872678,-64.460519,-40.366554)" /></defs><sodipodi:namedview
   id="namedview6"
   pagecolor="#ffffff"
   bordercolor="#000000"
   borderopacity="0.25"
   inkscape:showpageshadow="2"
   inkscape:pageopacity="0.0"
   inkscape:pagecheckerboard="false"
   inkscape:deskcolor="#d1d1d1"
   inkscape:zoom="7.9999996"
   inkscape:cx="-4.0625002"
   inkscape:cy="11.375001"
   inkscape:window-width="1888"
   inkscape:window-height="1126"
   inkscape:window-x="15"
   inkscape:window-y="37"
   inkscape:window-maximized="1"
   inkscape:current-layer="Layer_1"
   showgrid="true" />
<style
   type="text/css"
   id="style1">
	.st0{fill:url(#SVGID_1_);}
	.st1{fill:url(#SVGID_2_);}
	.st2{fill:url(#SVGID_3_);}
</style>
<linearGradient
   id="SVGID_1_"
   gradientUnits="userSpaceOnUse"
   x1="360.87909"
   y1="351.45529"
   x2="141.213"
   y2="-69.293602"
   gradientTransform="matrix(0.06546031,0,0,-0.06853616,4.0013196,29.07129)">
	<stop
   offset="0"
   style="stop-color:#00FFA3"
   id="stop1" />
	<stop
   offset="1"
   style="stop-color:#DC1FFF"
   id="stop2" />
</linearGradient>

<linearGradient
   id="SVGID_2_"
   gradientUnits="userSpaceOnUse"
   x1="264.8291"
   y1="401.60141"
   x2="45.162998"
   y2="-19.147499"
   gradientTransform="matrix(0.06546031,0,0,-0.06853616,4.0013196,29.07129)">
	<stop
   offset="0"
   style="stop-color:#00FFA3"
   id="stop3" />
	<stop
   offset="1"
   style="stop-color:#DC1FFF"
   id="stop4" />
</linearGradient>

<linearGradient
   id="SVGID_3_"
   gradientUnits="userSpaceOnUse"
   x1="312.5484"
   y1="376.68799"
   x2="92.882202"
   y2="-44.061001"
   gradientTransform="matrix(0.06546031,0,0,-0.06853616,4.0013196,29.07129)">
	<stop
   offset="0"
   style="stop-color:#00FFA3"
   id="stop5" />
	<stop
   offset="1"
   style="stop-color:#DC1FFF"
   id="stop6" />
</linearGradient>

<path
   d="m 33.940082,22.15234 c 0,0.333263 -0.110319,0.621559 -0.33102,0.86503 -0.220764,0.243505 -0.482089,0.365287 -0.784112,0.365287 h -3.90316 c 0,2.191189 -0.389054,4.048953 -1.167511,5.573613 l 3.624365,4.017101 c 0.220745,0.243143 0.331195,0.531574 0.331195,0.864865 0,0.333105 -0.110318,0.621394 -0.331195,0.864863 -0.209162,0.243141 -0.470348,0.364952 -0.784111,0.364952 -0.313626,0 -0.575029,-0.121879 -0.784111,-0.364952 l -3.450248,-3.786313 c -0.0581,0.06394 -0.145177,0.147263 -0.261244,0.24972 -0.116422,0.102503 -0.360193,0.285256 -0.732028,0.547764 -0.371639,0.262735 -0.749263,0.496574 -1.132545,0.701645 -0.383417,0.205002 -0.859872,0.390851 -1.42907,0.557456 -0.569215,0.166237 -1.123424,0.193662 -1.690158,0.249762 -0.397691,0.03937 -0.797736,0.06227 -1.197367,0.06066 -0.344954,-0.0014 -0.689934,-0.02546 -1.03309,-0.06066 -0.592691,-0.0608 -1.18201,-0.08663 -1.768441,-0.259682 -0.586867,-0.172836 -1.092123,-0.384336 -1.516179,-0.634221 -0.424114,-0.249886 -0.807374,-0.499564 -1.149977,-0.749596 -0.342758,-0.249925 -0.595279,-0.457985 -0.75811,-0.624424 l -0.261243,-0.269271 -3.188845,3.978574 c -0.232328,0.268922 -0.511065,0.403538 -0.836471,0.403538 -0.278798,0 -0.528441,-0.102712 -0.749087,-0.307554 -0.220802,-0.230662 -0.339902,-0.515754 -0.357494,-0.855253 -0.01773,-0.339519 0.07268,-0.637335 0.270367,-0.893678 l 3.519763,-4.362681 C 11.415256,27.187955 11.07827,25.432547 11.07827,23.382414 H 7.1751278 c -0.3022007,0 -0.5634478,-0.121803 -0.7840929,-0.365101 C 6.170232,22.773685 6.059778,22.485546 6.059778,22.152281 c 0,-0.333121 0.1105282,-0.621565 0.3312569,-0.864818 C 6.61168,21.044115 6.8729271,20.92248 7.1751278,20.92248 H 11.078249 V 15.272119 L 8.063702,11.947159 C 7.8430156,11.703651 7.7326225,11.415392 7.7326225,11.082281 c 0,-0.333088 0.1105049,-0.621568 0.3310795,-0.864854 0.220605,-0.2434706 0.482067,-0.3654407 0.784131,-0.3654407 0.302178,0 0.563345,0.1221413 0.784168,0.3654407 l 3.014549,3.324964 h 14.707016 l 3.014589,-3.324964 c 0.220569,-0.2434706 0.48189,-0.3654407 0.784089,-0.3654407 0.302024,0 0.563486,0.1221413 0.784095,0.3654407 0.220763,0.243286 0.331214,0.531766 0.331214,0.864854 0,0.333111 -0.110493,0.621404 -0.331214,0.864878 l -3.014549,3.32496 v 5.650452 h 3.903143 c 0.30214,0 0.563504,0.121629 0.784109,0.365166 0.220728,0.243255 0.33118,0.531702 0.33118,0.864634 v 0 l -1.98e-4,-3.1e-5 z M 25.575907,11.08212 h -11.15205 c 0,-1.7039386 0.543076,-3.1551183 1.629308,-4.3532278 1.085937,-1.1981167 2.401839,-1.7969434 3.946756,-1.7969434 1.544939,0 2.860839,0.5988267 3.946795,1.7969434 1.086293,1.1980819 1.629192,2.6492892 1.629191,4.3532278 z"
   id="path1"
   style="overflow:hidden;fill:url(#linearGradient8);stroke:none;stroke-width:0.989468;stroke-dasharray:none;stroke-opacity:1"
   sodipodi:nodetypes="csscccscsccccccaaaccccccscccccscscscccscsccccscscccscsccccccscc" /></svg>
