<?xml version="1.0" encoding="UTF-8" standalone="no"?>
<!-- Generator: Adobe Illustrator 24.0.0, SVG Export Plug-In . SVG Version: 6.00 Build 0)  -->

<svg
   version="1.1"
   id="Layer_1"
   x="0px"
   y="0px"
   viewBox="0 0 15.999999 15.999999"
   xml:space="preserve"
   sodipodi:docname="2024-02-23_tool-window-icon1.svg"
   inkscape:version="1.3.2 (091e20ef0f, 2023-11-25, custom)"
   width="16"
   height="16"
   xmlns:inkscape="http://www.inkscape.org/namespaces/inkscape"
   xmlns:sodipodi="http://sodipodi.sourceforge.net/DTD/sodipodi-0.dtd"
   xmlns="http://www.w3.org/2000/svg"
   xmlns:svg="http://www.w3.org/2000/svg"><defs
   id="defs6" /><sodipodi:namedview
   id="namedview6"
   pagecolor="#ffffff"
   bordercolor="#000000"
   borderopacity="0.25"
   inkscape:showpageshadow="2"
   inkscape:pageopacity="0.0"
   inkscape:pagecheckerboard="true"
   inkscape:deskcolor="#d1d1d1"
   inkscape:zoom="25.48927"
   inkscape:cx="-0.33347365"
   inkscape:cy="8.3172252"
   inkscape:window-width="1888"
   inkscape:window-height="1126"
   inkscape:window-x="15"
   inkscape:window-y="37"
   inkscape:window-maximized="1"
   inkscape:current-layer="Layer_1"
   showgrid="true" />
<style
   type="text/css"
   id="style1">
	.st0{fill:url(#SVGID_1_);}
	.st1{fill:url(#SVGID_2_);}
	.st2{fill:url(#SVGID_3_);}
</style>
<linearGradient
   id="SVGID_1_"
   gradientUnits="userSpaceOnUse"
   x1="360.87909"
   y1="351.45529"
   x2="141.213"
   y2="-69.293602"
   gradientTransform="matrix(0.06546031,0,0,-0.06853616,4.0013196,29.07129)">
	<stop
   offset="0"
   style="stop-color:#00FFA3"
   id="stop1" />
	<stop
   offset="1"
   style="stop-color:#DC1FFF"
   id="stop2" />
</linearGradient>

<linearGradient
   id="SVGID_2_"
   gradientUnits="userSpaceOnUse"
   x1="264.8291"
   y1="401.60141"
   x2="45.162998"
   y2="-19.147499"
   gradientTransform="matrix(0.06546031,0,0,-0.06853616,4.0013196,29.07129)">
	<stop
   offset="0"
   style="stop-color:#00FFA3"
   id="stop3" />
	<stop
   offset="1"
   style="stop-color:#DC1FFF"
   id="stop4" />
</linearGradient>

<linearGradient
   id="SVGID_3_"
   gradientUnits="userSpaceOnUse"
   x1="312.5484"
   y1="376.68799"
   x2="92.882202"
   y2="-44.061001"
   gradientTransform="matrix(0.06546031,0,0,-0.06853616,4.0013196,29.07129)">
	<stop
   offset="0"
   style="stop-color:#00FFA3"
   id="stop5" />
	<stop
   offset="1"
   style="stop-color:#DC1FFF"
   id="stop6" />
</linearGradient>

<g
   id="g1"
   transform="translate(9.6856944e-8,-0.35939475)"><path
     class="st0"
     d="m 3.4620504,11.520033 c 0.081125,-0.09245 0.1926728,-0.14638 0.3109806,-0.14638 h 10.728828 c 0.196053,0 0.294079,0.269645 0.15549,0.427582 l -2.1194,2.415259 c -0.08112,0.09246 -0.192673,0.146377 -0.31098,0.146377 H 1.4981411 c -0.1960529,0 -0.2940795,-0.269645 -0.1554903,-0.427583 z"
     id="path2"
     style="fill:#afb1b3;fill-opacity:1;stroke:none;stroke-width:0.538619;stroke-dasharray:none;stroke-opacity:1" /><path
     class="st1"
     d="m 3.4620504,2.5022981 c 0.084505,-0.09245 0.196053,-0.1463796 0.3109806,-0.1463796 h 10.728828 c 0.196053,0 0.294079,0.2696462 0.15549,0.4275818 l -2.1194,2.4152585 c -0.08112,0.092451 -0.192673,0.1463797 -0.31098,0.1463797 H 1.4981411 c -0.1960529,0 -0.2940795,-0.2696461 -0.1554903,-0.4275815 z"
     id="path4"
     style="fill:#afb1b3;fill-opacity:1;stroke:none;stroke-width:0.538619;stroke-dasharray:none;stroke-opacity:1" /><path
     class="st2"
     d="M 12.537949,6.9822747 C 12.456827,6.889824 12.345276,6.835895 12.226969,6.835895 H 1.4981411 c -0.1960529,0 -0.2940795,0.2696461 -0.1554903,0.4275815 l 2.1193996,2.4152582 c 0.081125,0.092451 0.1926728,0.1463796 0.3109806,0.1463796 h 10.728828 c 0.196053,0 0.294079,-0.269646 0.15549,-0.4275821 z"
     id="path6"
     style="fill:#afb1b3;fill-opacity:1;stroke:none;stroke-width:0.538619;stroke-dasharray:none;stroke-opacity:1" /></g></svg>
